<mxfile host="app.diagrams.net" agent="Mozilla/5.0 (X11; Linux x86_64) AppleWebKit/537.36 (KHTML, like Gecko) Chrome/130.0.0.0 Safari/537.36" version="24.8.4">
  <diagram name="Page-1" id="BNjqO_U-ip7hN5Ylay93">
    <mxGraphModel dx="1195" dy="683" grid="1" gridSize="10" guides="1" tooltips="1" connect="1" arrows="1" fold="1" page="1" pageScale="1" pageWidth="827" pageHeight="1169" math="0" shadow="0">
      <root>
        <mxCell id="0" />
        <mxCell id="1" parent="0" />
        <mxCell id="7ALhebWWjywCs4MrrUen-18" style="edgeStyle=orthogonalEdgeStyle;rounded=0;orthogonalLoop=1;jettySize=auto;html=1;entryX=0.5;entryY=0;entryDx=0;entryDy=0;curved=1;dashed=1;" edge="1" parent="1" source="2" target="9">
          <mxGeometry relative="1" as="geometry">
            <Array as="points">
              <mxPoint x="110" y="220" />
              <mxPoint x="990" y="220" />
            </Array>
          </mxGeometry>
        </mxCell>
        <mxCell id="2" value="Hidden States" style="rounded=1;whiteSpace=wrap;html=1;fillColor=#E6F3FF;strokeColor=#000000;" vertex="1" parent="1">
          <mxGeometry x="50" y="280" width="120" height="40" as="geometry" />
        </mxCell>
        <mxCell id="7ALhebWWjywCs4MrrUen-11" style="edgeStyle=orthogonalEdgeStyle;rounded=0;orthogonalLoop=1;jettySize=auto;html=1;" edge="1" parent="1" source="3" target="4">
          <mxGeometry relative="1" as="geometry" />
        </mxCell>
        <mxCell id="3" value="Layer Norm" style="rounded=1;whiteSpace=wrap;html=1;fillColor=#F5F5F5;strokeColor=#000000;" vertex="1" parent="1">
          <mxGeometry x="220" y="280" width="100" height="40" as="geometry" />
        </mxCell>
        <mxCell id="7ALhebWWjywCs4MrrUen-13" style="edgeStyle=orthogonalEdgeStyle;rounded=0;orthogonalLoop=1;jettySize=auto;html=1;entryX=0;entryY=0.5;entryDx=0;entryDy=0;" edge="1" parent="1" source="4" target="5">
          <mxGeometry relative="1" as="geometry" />
        </mxCell>
        <mxCell id="7ALhebWWjywCs4MrrUen-20" style="edgeStyle=orthogonalEdgeStyle;rounded=0;orthogonalLoop=1;jettySize=auto;html=1;entryX=0.5;entryY=0;entryDx=0;entryDy=0;curved=1;dashed=1;" edge="1" parent="1" source="4" target="8">
          <mxGeometry relative="1" as="geometry">
            <Array as="points">
              <mxPoint x="440" y="190" />
              <mxPoint x="810" y="190" />
            </Array>
          </mxGeometry>
        </mxCell>
        <mxCell id="4" value="Multi-Head&#xa;Attention" style="rounded=1;whiteSpace=wrap;html=1;fillColor=#E6F3FF;strokeColor=#000000;" vertex="1" parent="1">
          <mxGeometry x="370" y="260" width="140" height="80" as="geometry" />
        </mxCell>
        <mxCell id="7ALhebWWjywCs4MrrUen-16" style="edgeStyle=orthogonalEdgeStyle;rounded=0;orthogonalLoop=1;jettySize=auto;html=1;" edge="1" parent="1" source="5" target="8">
          <mxGeometry relative="1" as="geometry" />
        </mxCell>
        <mxCell id="7ALhebWWjywCs4MrrUen-21" style="edgeStyle=orthogonalEdgeStyle;rounded=0;orthogonalLoop=1;jettySize=auto;html=1;dashed=1;" edge="1" parent="1" source="5" target="6">
          <mxGeometry relative="1" as="geometry" />
        </mxCell>
        <mxCell id="7ALhebWWjywCs4MrrUen-22" style="edgeStyle=orthogonalEdgeStyle;rounded=0;orthogonalLoop=1;jettySize=auto;html=1;dashed=1;" edge="1" parent="1" source="5" target="7">
          <mxGeometry relative="1" as="geometry" />
        </mxCell>
        <mxCell id="5" value="Layer Norm" style="rounded=1;whiteSpace=wrap;html=1;fillColor=#F5F5F5;strokeColor=#000000;" vertex="1" parent="1">
          <mxGeometry x="560" y="280" width="100" height="40" as="geometry" />
        </mxCell>
        <mxCell id="7" value="Layer Memory&#xa;[16 × hidden_size]" style="shape=cylinder3;whiteSpace=wrap;html=1;boundedLbl=1;backgroundOutline=1;size=15;fillColor=#E6FFE6;strokeColor=#000000;" vertex="1" parent="1">
          <mxGeometry x="560" y="380" width="100" height="80" as="geometry" />
        </mxCell>
        <mxCell id="7ALhebWWjywCs4MrrUen-17" style="edgeStyle=orthogonalEdgeStyle;rounded=0;orthogonalLoop=1;jettySize=auto;html=1;" edge="1" parent="1" source="8" target="9">
          <mxGeometry relative="1" as="geometry" />
        </mxCell>
        <mxCell id="8" value="MLP" style="rounded=1;whiteSpace=wrap;html=1;fillColor=#E6F3FF;strokeColor=#000000;" vertex="1" parent="1">
          <mxGeometry x="740" y="260" width="140" height="80" as="geometry" />
        </mxCell>
        <mxCell id="9" value="Output" style="rounded=1;whiteSpace=wrap;html=1;fillColor=#E6F3FF;strokeColor=#000000;" vertex="1" parent="1">
          <mxGeometry x="930" y="280" width="120" height="40" as="geometry" />
        </mxCell>
        <mxCell id="10" value="" style="endArrow=classic;html=1;strokeColor=#404040;" edge="1" parent="1" source="2" target="3">
          <mxGeometry width="50" height="50" relative="1" as="geometry" />
        </mxCell>
        <mxCell id="7ALhebWWjywCs4MrrUen-19" value="" style="group" vertex="1" connectable="0" parent="1">
          <mxGeometry x="560" y="50" width="100" height="110" as="geometry" />
        </mxCell>
        <mxCell id="6" value="Global Memory&#xa;[32 × hidden_size]" style="shape=cylinder3;whiteSpace=wrap;html=1;boundedLbl=1;backgroundOutline=1;size=15;fillColor=#E6FFE6;strokeColor=#000000;" vertex="1" parent="7ALhebWWjywCs4MrrUen-19">
          <mxGeometry y="30" width="100" height="80" as="geometry" />
        </mxCell>
        <mxCell id="11" value="Shared across all layers" style="text;html=1;strokeColor=none;fillColor=none;align=center;verticalAlign=middle;whiteSpace=wrap;rounded=0;fontStyle=2;" vertex="1" parent="7ALhebWWjywCs4MrrUen-19">
          <mxGeometry width="100" height="20" as="geometry" />
        </mxCell>
      </root>
    </mxGraphModel>
  </diagram>
</mxfile>
